<svg xmlns="http://www.w3.org/2000/svg" xmlns:xlink="http://www.w3.org/1999/xlink" width="1080" zoomAndPan="magnify" viewBox="0 0 810 809.999993" height="1080" preserveAspectRatio="xMidYMid meet" version="1.2"><defs><clipPath id="a0ee9b7253"><path d="M 35.640625 31 L 651 31 L 651 779 L 35.640625 779 Z M 35.640625 31 "/></clipPath></defs><g id="2a1ad3abd3"><rect x="0" width="810" y="0" height="809.999993" style="fill:#ffffff;fill-opacity:1;stroke:none;"/><rect x="0" width="810" y="0" height="809.999993" style="fill:#000000;fill-opacity:1;stroke:none;"/><path style=" stroke:none;fill-rule:nonzero;fill:#ffffff;fill-opacity:1;" d="M 413.207031 573.011719 L 501.398438 538.121094 L 428.472656 465.195312 L 393.640625 553.382812 C 386.621094 571.210938 395.441406 580.03125 413.207031 573.011719 Z M 413.207031 573.011719 "/><g clip-rule="nonzero" clip-path="url(#a0ee9b7253)"><path style=" stroke:none;fill-rule:nonzero;fill:#ffffff;fill-opacity:1;" d="M 426.03125 605.367188 C 417.847656 608.542969 409.882812 610.191406 402.3125 610.191406 C 386.5 610.191406 372.671875 603.109375 364.277344 590.808594 C 358.902344 582.871094 351.332031 565.777344 361.285156 540.59375 L 376.058594 503.140625 L 143.976562 503.140625 L 143.976562 468.371094 L 389.796875 468.371094 L 398.800781 445.660156 L 503.625 340.835938 L 143.976562 340.835938 L 143.976562 306.097656 L 538.425781 306.097656 L 650.148438 194.375 L 650.148438 72.976562 C 650.148438 49.835938 631.433594 31.0625 608.234375 31.0625 L 77.550781 31.0625 C 54.414062 31.0625 35.640625 49.835938 35.640625 72.976562 L 35.640625 736.292969 C 35.640625 759.429688 54.414062 778.203125 77.550781 778.203125 L 608.234375 778.203125 C 631.433594 778.203125 650.148438 759.429688 650.148438 736.292969 L 650.148438 438.609375 L 520.902344 567.851562 Z M 143.976562 143.734375 L 541.875 143.734375 L 541.875 178.5 L 143.976562 178.5 Z M 342.910156 665.535156 L 143.976562 665.535156 L 143.976562 630.765625 L 342.9375 630.765625 L 342.9375 665.535156 Z M 342.910156 665.535156 "/></g><path style=" stroke:none;fill-rule:nonzero;fill:#ffffff;fill-opacity:1;" d="M 760.3125 230.027344 L 736.65625 206.28125 C 723.132812 192.757812 700.941406 192.757812 687.480469 206.28125 L 453.105469 440.652344 L 526.03125 513.578125 L 760.34375 279.203125 C 773.867188 265.683594 773.867188 243.550781 760.3125 230.027344 Z M 760.3125 230.027344 "/></g></svg>