<svg xmlns="http://www.w3.org/2000/svg" xmlns:xlink="http://www.w3.org/1999/xlink" width="1080" zoomAndPan="magnify" viewBox="0 0 810 809.999993" height="1080" preserveAspectRatio="xMidYMid meet" version="1.2"><defs><clipPath id="a7c5148769"><path d="M 19.746094 54.597656 L 789.859375 54.597656 L 789.859375 755.074219 L 19.746094 755.074219 Z M 19.746094 54.597656 "/></clipPath><clipPath id="3bfa773503"><path d="M 30 93 L 789.859375 93 L 789.859375 755.074219 L 30 755.074219 Z M 30 93 "/></clipPath></defs><g id="b63e1dd851"><g clip-rule="nonzero" clip-path="url(#a7c5148769)"><path style=" stroke:none;fill-rule:nonzero;fill:#ffbd59;fill-opacity:1;" d="M 29.882812 639.09375 L 337.046875 94.179688 C 366.796875 41.394531 442.8125 41.394531 472.570312 94.179688 L 779.726562 639.09375 C 808.957031 690.941406 771.492188 755.074219 711.96875 755.074219 L 97.640625 755.074219 C 38.121094 755.074219 0.652344 690.941406 29.882812 639.09375 "/></g><g clip-rule="nonzero" clip-path="url(#3bfa773503)"><path style=" stroke:none;fill-rule:nonzero;fill:#feae36;fill-opacity:1;" d="M 779.726562 639.09375 L 472.570312 94.179688 C 456.207031 65.15625 704.222656 600.222656 704.222656 600.222656 C 733.453125 652.078125 695.984375 716.203125 636.464844 716.203125 L 30.304688 716.203125 C 43.414062 738.882812 67.738281 755.074219 97.640625 755.074219 L 711.96875 755.074219 C 771.492188 755.074219 808.957031 690.941406 779.726562 639.09375 "/></g><path style=" stroke:none;fill-rule:nonzero;fill:#ffffff;fill-opacity:1;" d="M 404.804688 554.058594 C 380.910156 554.058594 361.542969 573.429688 361.542969 597.320312 C 361.542969 621.214844 380.910156 640.585938 404.804688 640.585938 C 428.699219 640.585938 448.070312 621.214844 448.070312 597.320312 C 448.070312 573.429688 428.699219 554.058594 404.804688 554.058594 "/><path style=" stroke:none;fill-rule:nonzero;fill:#ffffff;fill-opacity:1;" d="M 404.804688 207.949219 C 366.894531 207.949219 337.15625 240.492188 340.5625 278.253906 L 357.65625 467.78125 C 359.855469 492.179688 380.308594 510.867188 404.804688 510.867188 C 429.304688 510.867188 449.753906 492.179688 451.957031 467.78125 L 469.050781 278.253906 C 472.457031 240.492188 442.71875 207.949219 404.804688 207.949219 "/></g></svg>