<svg xmlns="http://www.w3.org/2000/svg" xmlns:xlink="http://www.w3.org/1999/xlink" width="1080" zoomAndPan="magnify" viewBox="0 0 810 809.999993" height="1080" preserveAspectRatio="xMidYMid meet" version="1.2"><defs><clipPath id="e4554fe4dc"><path d="M 19.746094 54.597656 L 789.859375 54.597656 L 789.859375 755.074219 L 19.746094 755.074219 Z M 19.746094 54.597656 "/></clipPath><clipPath id="d94c8780ea"><path d="M 30 93 L 789.859375 93 L 789.859375 755.074219 L 30 755.074219 Z M 30 93 "/></clipPath></defs><g id="ef0179de28"><g clip-rule="nonzero" clip-path="url(#e4554fe4dc)"><path style=" stroke:none;fill-rule:nonzero;fill:#00bf63;fill-opacity:1;" d="M 29.882812 639.09375 L 337.046875 94.179688 C 366.796875 41.394531 442.8125 41.394531 472.570312 94.179688 L 779.726562 639.09375 C 808.957031 690.941406 771.492188 755.074219 711.96875 755.074219 L 97.640625 755.074219 C 38.121094 755.074219 0.652344 690.941406 29.882812 639.09375 "/></g><g clip-rule="nonzero" clip-path="url(#d94c8780ea)"><path style=" stroke:none;fill-rule:nonzero;fill:#00aa59;fill-opacity:1;" d="M 779.726562 639.09375 L 472.570312 94.179688 C 456.207031 65.15625 704.222656 600.222656 704.222656 600.222656 C 733.453125 652.078125 695.984375 716.203125 636.464844 716.203125 L 30.304688 716.203125 C 43.414062 738.882812 67.738281 755.074219 97.640625 755.074219 L 711.96875 755.074219 C 771.492188 755.074219 808.957031 690.941406 779.726562 639.09375 "/></g><path style=" stroke:none;fill-rule:nonzero;fill:#ffffff;fill-opacity:1;" d="M 404.804688 554.058594 C 380.910156 554.058594 361.542969 573.429688 361.542969 597.320312 C 361.542969 621.214844 380.910156 640.585938 404.804688 640.585938 C 428.699219 640.585938 448.070312 621.214844 448.070312 597.320312 C 448.070312 573.429688 428.699219 554.058594 404.804688 554.058594 "/><path style=" stroke:none;fill-rule:nonzero;fill:#ffffff;fill-opacity:1;" d="M 404.804688 207.949219 C 366.894531 207.949219 337.15625 240.492188 340.5625 278.253906 L 357.65625 467.78125 C 359.855469 492.179688 380.308594 510.867188 404.804688 510.867188 C 429.304688 510.867188 449.753906 492.179688 451.957031 467.78125 L 469.050781 278.253906 C 472.457031 240.492188 442.71875 207.949219 404.804688 207.949219 "/><g style="fill:#000000;fill-opacity:1;"><g transform="translate(380.5346, 766.202549)"><path style="stroke:none" d="M 0.953125 0 L 1.703125 -2.625 L 0.359375 -2.625 L 0.359375 -3.328125 L 1.890625 -3.328125 L 2.40625 -5.078125 L 0.953125 -5.078125 L 0.953125 -5.765625 L 2.59375 -5.765625 L 3.34375 -8.40625 L 4.15625 -8.40625 L 3.40625 -5.765625 L 5.78125 -5.765625 L 6.546875 -8.40625 L 7.359375 -8.40625 L 6.59375 -5.765625 L 7.9375 -5.765625 L 7.9375 -5.078125 L 6.40625 -5.078125 L 5.90625 -3.328125 L 7.34375 -3.328125 L 7.34375 -2.625 L 5.71875 -2.625 L 4.953125 0 L 4.140625 0 L 4.890625 -2.625 L 2.515625 -2.625 L 1.765625 0 Z M 2.71875 -3.328125 L 5.09375 -3.328125 L 5.59375 -5.078125 L 3.21875 -5.078125 Z M 2.71875 -3.328125 "/></g></g><g style="fill:#000000;fill-opacity:1;"><g transform="translate(388.598622, 766.202549)"><path style="stroke:none" d="M 3.953125 0.125 C 3.453125 0.125 2.988281 0.0195312 2.5625 -0.1875 C 2.144531 -0.40625 1.785156 -0.703125 1.484375 -1.078125 C 1.191406 -1.460938 0.960938 -1.921875 0.796875 -2.453125 C 0.628906 -2.984375 0.546875 -3.566406 0.546875 -4.203125 C 0.546875 -4.828125 0.628906 -5.40625 0.796875 -5.9375 C 0.960938 -6.476562 1.191406 -6.9375 1.484375 -7.3125 C 1.785156 -7.695312 2.148438 -7.992188 2.578125 -8.203125 C 3.003906 -8.410156 3.460938 -8.515625 3.953125 -8.515625 C 4.460938 -8.515625 4.925781 -8.410156 5.34375 -8.203125 C 5.757812 -7.992188 6.117188 -7.695312 6.421875 -7.3125 C 6.734375 -6.9375 6.972656 -6.476562 7.140625 -5.9375 C 7.304688 -5.40625 7.390625 -4.828125 7.390625 -4.203125 C 7.390625 -3.566406 7.304688 -2.984375 7.140625 -2.453125 C 6.972656 -1.921875 6.734375 -1.460938 6.421875 -1.078125 C 6.117188 -0.703125 5.757812 -0.40625 5.34375 -0.1875 C 4.925781 0.0195312 4.460938 0.125 3.953125 0.125 Z M 3.953125 -0.671875 C 4.734375 -0.671875 5.351562 -0.988281 5.8125 -1.625 C 6.28125 -2.269531 6.515625 -3.128906 6.515625 -4.203125 C 6.515625 -5.273438 6.28125 -6.128906 5.8125 -6.765625 C 5.351562 -7.410156 4.734375 -7.734375 3.953125 -7.734375 C 3.191406 -7.734375 2.578125 -7.410156 2.109375 -6.765625 C 1.648438 -6.128906 1.421875 -5.273438 1.421875 -4.203125 C 1.421875 -3.128906 1.648438 -2.269531 2.109375 -1.625 C 2.578125 -0.988281 3.191406 -0.671875 3.953125 -0.671875 Z M 3.953125 -0.671875 "/></g></g><g style="fill:#000000;fill-opacity:1;"><g transform="translate(396.290642, 766.202549)"><path style="stroke:none" d="M 3.953125 0.125 C 3.453125 0.125 2.988281 0.0195312 2.5625 -0.1875 C 2.144531 -0.40625 1.785156 -0.703125 1.484375 -1.078125 C 1.191406 -1.460938 0.960938 -1.921875 0.796875 -2.453125 C 0.628906 -2.984375 0.546875 -3.566406 0.546875 -4.203125 C 0.546875 -4.828125 0.628906 -5.40625 0.796875 -5.9375 C 0.960938 -6.476562 1.191406 -6.9375 1.484375 -7.3125 C 1.785156 -7.695312 2.148438 -7.992188 2.578125 -8.203125 C 3.003906 -8.410156 3.460938 -8.515625 3.953125 -8.515625 C 4.460938 -8.515625 4.925781 -8.410156 5.34375 -8.203125 C 5.757812 -7.992188 6.117188 -7.695312 6.421875 -7.3125 C 6.734375 -6.9375 6.972656 -6.476562 7.140625 -5.9375 C 7.304688 -5.40625 7.390625 -4.828125 7.390625 -4.203125 C 7.390625 -3.566406 7.304688 -2.984375 7.140625 -2.453125 C 6.972656 -1.921875 6.734375 -1.460938 6.421875 -1.078125 C 6.117188 -0.703125 5.757812 -0.40625 5.34375 -0.1875 C 4.925781 0.0195312 4.460938 0.125 3.953125 0.125 Z M 3.953125 -0.671875 C 4.734375 -0.671875 5.351562 -0.988281 5.8125 -1.625 C 6.28125 -2.269531 6.515625 -3.128906 6.515625 -4.203125 C 6.515625 -5.273438 6.28125 -6.128906 5.8125 -6.765625 C 5.351562 -7.410156 4.734375 -7.734375 3.953125 -7.734375 C 3.191406 -7.734375 2.578125 -7.410156 2.109375 -6.765625 C 1.648438 -6.128906 1.421875 -5.273438 1.421875 -4.203125 C 1.421875 -3.128906 1.648438 -2.269531 2.109375 -1.625 C 2.578125 -0.988281 3.191406 -0.671875 3.953125 -0.671875 Z M 3.953125 -0.671875 "/></g></g><g style="fill:#000000;fill-opacity:1;"><g transform="translate(403.982662, 766.202549)"><path style="stroke:none" d="M 2.65625 0.109375 C 2 0.109375 1.460938 -0.0546875 1.046875 -0.390625 C 0.640625 -0.734375 0.4375 -1.171875 0.4375 -1.703125 C 0.4375 -2.265625 0.648438 -2.710938 1.078125 -3.046875 C 1.515625 -3.378906 2.097656 -3.546875 2.828125 -3.546875 C 3.148438 -3.546875 3.460938 -3.507812 3.765625 -3.4375 C 4.066406 -3.363281 4.34375 -3.257812 4.59375 -3.125 L 4.59375 -3.921875 C 4.59375 -4.398438 4.457031 -4.757812 4.1875 -5 C 3.914062 -5.25 3.519531 -5.375 3 -5.375 C 2.707031 -5.375 2.410156 -5.332031 2.109375 -5.25 C 1.804688 -5.164062 1.472656 -5.03125 1.109375 -4.84375 L 0.78125 -5.53125 C 1.207031 -5.738281 1.601562 -5.890625 1.96875 -5.984375 C 2.34375 -6.078125 2.710938 -6.125 3.078125 -6.125 C 3.835938 -6.125 4.421875 -5.941406 4.828125 -5.578125 C 5.242188 -5.222656 5.453125 -4.710938 5.453125 -4.046875 L 5.453125 0 L 4.59375 0 L 4.59375 -0.59375 C 4.320312 -0.351562 4.023438 -0.175781 3.703125 -0.0625 C 3.378906 0.0507812 3.03125 0.109375 2.65625 0.109375 Z M 1.28125 -1.734375 C 1.28125 -1.390625 1.421875 -1.113281 1.703125 -0.90625 C 1.992188 -0.695312 2.363281 -0.59375 2.8125 -0.59375 C 3.164062 -0.59375 3.488281 -0.644531 3.78125 -0.75 C 4.082031 -0.863281 4.351562 -1.039062 4.59375 -1.28125 L 4.59375 -2.40625 C 4.34375 -2.570312 4.078125 -2.691406 3.796875 -2.765625 C 3.515625 -2.847656 3.203125 -2.890625 2.859375 -2.890625 C 2.378906 -2.890625 1.992188 -2.78125 1.703125 -2.5625 C 1.421875 -2.351562 1.28125 -2.078125 1.28125 -1.734375 Z M 1.28125 -1.734375 "/></g></g><g style="fill:#000000;fill-opacity:1;"><g transform="translate(409.934676, 766.202549)"><path style="stroke:none" d="M 2.65625 0.109375 C 2 0.109375 1.460938 -0.0546875 1.046875 -0.390625 C 0.640625 -0.734375 0.4375 -1.171875 0.4375 -1.703125 C 0.4375 -2.265625 0.648438 -2.710938 1.078125 -3.046875 C 1.515625 -3.378906 2.097656 -3.546875 2.828125 -3.546875 C 3.148438 -3.546875 3.460938 -3.507812 3.765625 -3.4375 C 4.066406 -3.363281 4.34375 -3.257812 4.59375 -3.125 L 4.59375 -3.921875 C 4.59375 -4.398438 4.457031 -4.757812 4.1875 -5 C 3.914062 -5.25 3.519531 -5.375 3 -5.375 C 2.707031 -5.375 2.410156 -5.332031 2.109375 -5.25 C 1.804688 -5.164062 1.472656 -5.03125 1.109375 -4.84375 L 0.78125 -5.53125 C 1.207031 -5.738281 1.601562 -5.890625 1.96875 -5.984375 C 2.34375 -6.078125 2.710938 -6.125 3.078125 -6.125 C 3.835938 -6.125 4.421875 -5.941406 4.828125 -5.578125 C 5.242188 -5.222656 5.453125 -4.710938 5.453125 -4.046875 L 5.453125 0 L 4.59375 0 L 4.59375 -0.59375 C 4.320312 -0.351562 4.023438 -0.175781 3.703125 -0.0625 C 3.378906 0.0507812 3.03125 0.109375 2.65625 0.109375 Z M 1.28125 -1.734375 C 1.28125 -1.390625 1.421875 -1.113281 1.703125 -0.90625 C 1.992188 -0.695312 2.363281 -0.59375 2.8125 -0.59375 C 3.164062 -0.59375 3.488281 -0.644531 3.78125 -0.75 C 4.082031 -0.863281 4.351562 -1.039062 4.59375 -1.28125 L 4.59375 -2.40625 C 4.34375 -2.570312 4.078125 -2.691406 3.796875 -2.765625 C 3.515625 -2.847656 3.203125 -2.890625 2.859375 -2.890625 C 2.378906 -2.890625 1.992188 -2.78125 1.703125 -2.5625 C 1.421875 -2.351562 1.28125 -2.078125 1.28125 -1.734375 Z M 1.28125 -1.734375 "/></g></g><g style="fill:#000000;fill-opacity:1;"><g transform="translate(415.886691, 766.202549)"><path style="stroke:none" d="M 0.78125 -4.265625 L 0.96875 -8.40625 L 5.90625 -8.40625 L 5.90625 -7.625 L 1.71875 -7.625 L 1.59375 -4.890625 C 1.863281 -4.992188 2.144531 -5.070312 2.4375 -5.125 C 2.726562 -5.175781 3.03125 -5.203125 3.34375 -5.203125 C 4.226562 -5.203125 4.945312 -4.957031 5.5 -4.46875 C 6.0625 -3.988281 6.34375 -3.375 6.34375 -2.625 C 6.34375 -1.8125 6.0625 -1.148438 5.5 -0.640625 C 4.9375 -0.128906 4.195312 0.125 3.28125 0.125 C 2.707031 0.125 2.164062 0.03125 1.65625 -0.15625 C 1.15625 -0.351562 0.703125 -0.640625 0.296875 -1.015625 L 0.859375 -1.609375 C 1.234375 -1.273438 1.613281 -1.03125 2 -0.875 C 2.382812 -0.71875 2.816406 -0.640625 3.296875 -0.640625 C 3.941406 -0.640625 4.460938 -0.820312 4.859375 -1.1875 C 5.253906 -1.550781 5.453125 -2.019531 5.453125 -2.59375 C 5.453125 -3.144531 5.238281 -3.59375 4.8125 -3.9375 C 4.394531 -4.289062 3.851562 -4.46875 3.1875 -4.46875 C 2.875 -4.46875 2.554688 -4.429688 2.234375 -4.359375 C 1.921875 -4.296875 1.609375 -4.203125 1.296875 -4.078125 Z M 0.78125 -4.265625 "/></g></g><g style="fill:#000000;fill-opacity:1;"><g transform="translate(422.102709, 766.202549)"><path style="stroke:none" d="M 3.40625 -8.515625 C 3.90625 -8.515625 4.363281 -8.414062 4.78125 -8.21875 C 5.195312 -8.019531 5.550781 -7.742188 5.84375 -7.390625 C 6.144531 -7.035156 6.378906 -6.613281 6.546875 -6.125 C 6.710938 -5.632812 6.796875 -5.09375 6.796875 -4.5 C 6.796875 -3.800781 6.703125 -3.164062 6.515625 -2.59375 C 6.328125 -2.019531 6.0625 -1.535156 5.71875 -1.140625 C 5.382812 -0.742188 4.976562 -0.429688 4.5 -0.203125 C 4.019531 0.015625 3.488281 0.125 2.90625 0.125 C 2.539062 0.125 2.179688 0.078125 1.828125 -0.015625 C 1.472656 -0.117188 1.160156 -0.257812 0.890625 -0.4375 L 1.3125 -1.109375 C 1.5625 -0.972656 1.828125 -0.863281 2.109375 -0.78125 C 2.390625 -0.707031 2.664062 -0.671875 2.9375 -0.671875 C 3.84375 -0.671875 4.554688 -0.992188 5.078125 -1.640625 C 5.609375 -2.296875 5.890625 -3.195312 5.921875 -4.34375 C 5.609375 -3.976562 5.222656 -3.6875 4.765625 -3.46875 C 4.316406 -3.25 3.851562 -3.140625 3.375 -3.140625 C 2.957031 -3.140625 2.570312 -3.207031 2.21875 -3.34375 C 1.863281 -3.476562 1.554688 -3.660156 1.296875 -3.890625 C 1.035156 -4.117188 0.832031 -4.394531 0.6875 -4.71875 C 0.539062 -5.039062 0.46875 -5.390625 0.46875 -5.765625 C 0.46875 -6.160156 0.539062 -6.523438 0.6875 -6.859375 C 0.832031 -7.203125 1.035156 -7.492188 1.296875 -7.734375 C 1.554688 -7.972656 1.863281 -8.160156 2.21875 -8.296875 C 2.582031 -8.441406 2.976562 -8.515625 3.40625 -8.515625 Z M 3.53125 -3.875 C 3.96875 -3.875 4.394531 -3.984375 4.8125 -4.203125 C 5.226562 -4.421875 5.585938 -4.726562 5.890625 -5.125 C 5.796875 -5.90625 5.523438 -6.535156 5.078125 -7.015625 C 4.628906 -7.492188 4.078125 -7.734375 3.421875 -7.734375 C 2.828125 -7.734375 2.332031 -7.546875 1.9375 -7.171875 C 1.550781 -6.804688 1.359375 -6.347656 1.359375 -5.796875 C 1.359375 -5.222656 1.554688 -4.757812 1.953125 -4.40625 C 2.359375 -4.050781 2.882812 -3.875 3.53125 -3.875 Z M 3.53125 -3.875 "/></g></g></g></svg>